<svg width="250" height="90" viewBox="0 0 200 98" fill="none" xmlns="http://www.w3.org/2000/svg"><path d="M200 97.981V36.096h-5.128v56.747h-35.901V98H200v-.019Zm-24.329-36.096-5.69-8.563 5.69-8.582h-4.872l-4.554 6.863h-2.951V36.14h-4.267v25.72h4.267v-6.844h2.951l4.554 6.87h4.872Zm-30.568-8.582a5.165 5.165 0 0 1 .906-2.928 5.125 5.125 0 0 1 2.403-1.889 5.09 5.09 0 0 1 5.649 1.417l2.882-2.509a8.954 8.954 0 0 0-4.561-2.805 8.917 8.917 0 0 0-5.338.304 8.971 8.971 0 0 0-4.216 3.307 9.05 9.05 0 0 0 0 10.264 8.971 8.971 0 0 0 4.216 3.306 8.917 8.917 0 0 0 5.338.305 8.954 8.954 0 0 0 4.561-2.806l-2.882-2.509a5.091 5.091 0 0 1-5.667 1.41 5.123 5.123 0 0 1-2.401-1.905 5.164 5.164 0 0 1-.89-2.943v-.019Zm-10.356 8.582h4.267V44.722h-4.267v1.882a7.67 7.67 0 0 0-2.537-1.733 7.633 7.633 0 0 0-3.008-.595c-4.623 0-8.11 3.865-8.11 9.015s3.487 9.008 8.11 9.008a7.633 7.633 0 0 0 3.008-.595c.953-.4 1.816-.989 2.537-1.732V61.885Zm.425-8.582a5.172 5.172 0 0 1-.864 2.862 5.125 5.125 0 0 1-2.3 1.897 5.095 5.095 0 0 1-5.582-1.119 5.173 5.173 0 0 1-1.106-5.615 5.147 5.147 0 0 1 1.889-2.31 5.101 5.101 0 0 1 6.466.644 5.137 5.137 0 0 1 1.109 1.671 5.18 5.18 0 0 1 .388 1.97Zm-22.932 8.582h7.255v-3.438h-2.988V48.153h2.776v-3.431h-2.776v-2.86h-4.267v20.023ZM93.893 43.216c0-2.321 1.921-3.645 5.334-3.645 3.412 0 5.333 1.468 5.333 4.078h4.691c0-5.113-3.593-7.942-10.025-7.942-6.431 0-10.018 2.685-10.018 7.51 0 10.94 15.596 4.503 15.596 11.586 0 2.358-1.991 3.644-5.546 3.644-3.556 0-5.546-1.461-5.546-4.07h-4.698c0 5.112 3.662 7.935 10.244 7.935 6.581 0 10.237-2.685 10.237-7.528 0-10.94-15.596-4.504-15.596-11.587l-.006.02ZM78.965 62.732l8.427-18.017h-4.479l-3.948 8.438-3.95-8.438h-4.478l8.427 18.017Zm-8.254-9.41a9.044 9.044 0 0 0-1.5-5.01 8.97 8.97 0 0 0-4.018-3.326 8.912 8.912 0 0 0-5.178-.52 8.943 8.943 0 0 0-4.592 2.463 9.024 9.024 0 0 0-2.456 4.614 9.055 9.055 0 0 0 .51 5.208 8.997 8.997 0 0 0 3.302 4.044 8.923 8.923 0 0 0 4.98 1.517 8.946 8.946 0 0 0 6.32-2.638 9.047 9.047 0 0 0 2.632-6.352Zm-3.836 0c0 1.019-.3 2.015-.864 2.862a5.128 5.128 0 0 1-2.298 1.897 5.095 5.095 0 0 1-5.582-1.117 5.178 5.178 0 0 1-1.11-5.613 5.145 5.145 0 0 1 1.887-2.311 5.102 5.102 0 0 1 6.466.64 5.153 5.153 0 0 1 1.5 3.642Zm-15.858-4.29c0-.527-.036-1.053-.106-1.575H38.004v3.858h8.459a8.695 8.695 0 0 1-2.975 4.787 8.61 8.61 0 0 1-5.272 1.938 8.925 8.925 0 0 1-4.296-1.086 8.984 8.984 0 0 1-3.255-3.021 9.048 9.048 0 0 1-.655-8.608 9.007 9.007 0 0 1 2.76-3.484 8.918 8.918 0 0 1 8.49-1.283 8.964 8.964 0 0 1 3.656 2.514l3.238-2.823a13.23 13.23 0 0 0-5.384-3.726 13.162 13.162 0 0 0-12.53 1.85 13.293 13.293 0 0 0-4.092 5.124 13.371 13.371 0 0 0 .913 12.703 13.26 13.26 0 0 0 4.781 4.48 13.175 13.175 0 0 0 6.33 1.632c7.074 0 12.801-5.935 12.801-13.3l.044.02ZM5.127 5.174h35.896V0H0v61.885h5.128V5.157v.018Z" fill="#0A065E"></path></svg>
